<svg xmlns="http://www.w3.org/2000/svg" height="40" viewBox="0 -960 960 960" width="40"><path d="M789.615-136.667 534.077-392.205q-30.464 26.065-72.674 39.622-42.209 13.557-82.06 13.557-103.382 0-174.042-70.529-70.66-70.528-70.66-173.192 0-102.663 70.529-173.317 70.529-70.654 172.819-70.654 102.29 0 173.574 70.565 71.283 70.565 71.283 173.195 0 42.368-13.936 82.778-13.936 40.411-39.577 70.718L826.026-173.59l-36.411 36.923ZM378.564-390.205q81.979 0 137.541-55.284t55.562-137.383q0-82.098-55.503-137.382-55.504-55.285-137.541-55.285-82.166 0-137.484 55.285-55.319 55.284-55.319 137.382 0 82.099 55.319 137.383 55.318 55.284 137.425 55.284Z"/></svg>